<?xml version="1.0" standalone="no"?>
<!DOCTYPE svg PUBLIC "-//W3C//DTD SVG 20010904//EN"
 "http://www.w3.org/TR/2001/REC-SVG-20010904/DTD/svg10.dtd">
<svg version="1.0" xmlns="http://www.w3.org/2000/svg"
 width="256.000000pt" height="256.000000pt" viewBox="0 0 256.000000 256.000000"
 preserveAspectRatio="xMidYMid meet">

<g transform="translate(0.000000,256.000000) scale(0.100000,-0.100000)"
fill="#a689f9" stroke="none">
<path d="M615 2228 c-24 -22 -30 -50 -102 -462 -54 -309 -82 -445 -94 -460
-16 -19 -30 -21 -157 -26 -121 -5 -143 -8 -162 -25 -49 -44 -43 -112 11 -140
42 -22 2296 -22 2338 0 54 28 60 96 11 140 -19 17 -41 20 -162 25 -132 5 -141
6 -159 29 -10 13 -19 28 -19 35 0 6 -34 199 -74 428 -46 261 -80 427 -90 443
-30 46 -50 44 -372 -52 l-303 -90 -298 88 c-164 49 -308 89 -320 89 -12 0 -33
-10 -48 -22z"/>
<path d="M409 977 c-81 -54 -93 -105 -88 -369 4 -172 4 -175 32 -217 51 -77
68 -81 406 -81 279 0 297 1 338 21 64 31 93 86 93 177 l0 72 90 0 90 0 0 -72
c0 -91 29 -146 93 -177 41 -20 59 -21 338 -21 265 0 298 2 335 19 86 39 104
96 104 331 0 224 -12 264 -90 318 -32 22 -38 22 -347 22 -344 0 -346 0 -397
-60 -14 -18 -29 -49 -32 -71 l-7 -39 -87 0 -87 0 -7 39 c-3 22 -18 53 -32 71
-51 60 -53 60 -397 60 -310 0 -314 0 -348 -23z"/>
</g>
</svg>
